<?xml version="1.0" encoding="utf-8"?>
<!-- Generator: Adobe Illustrator 27.5.0, SVG Export Plug-In . SVG Version: 6.00 Build 0)  -->
<svg version="1.1" xmlns="http://www.w3.org/2000/svg" xmlns:xlink="http://www.w3.org/1999/xlink" x="0px" y="0px"
	 viewBox="0 0 500 500" style="enable-background:new 0 0 500 500;" xml:space="preserve">
<g id="Floor">
	<path id="Floor_00000146487773721902802400000001122858778695318706_" style="fill:#FAFAFA;" d="M74.82,242.574
		c-96.746,55.857-96.744,146.419,0.005,202.275s253.608,55.857,350.355,0c96.746-55.857,96.744-146.419-0.005-202.275
		C328.426,186.717,171.566,186.717,74.82,242.574z"/>
</g>
<g id="Shadows">
	<polygon id="Shadow_00000035527159864330138000000008352617249996729533_" style="fill:#E0E0E0;" points="21.882,339.564 
		75.481,308.619 129.082,339.564 75.482,370.511 	"/>
	<path id="Shadow_35_" style="fill:#E0E0E0;" d="M323.101,344.505l-154.666,89.243c-1.809,1.044-1.809,2.738,0,3.783l24.204,13.938
		c1.809,1.045,4.743,1.045,6.552,0l154.666-89.243c1.809-1.045,1.809-2.738,0-3.783l-24.205-13.938
		C327.843,343.46,324.91,343.46,323.101,344.505z"/>
	<polygon id="Shadow_00000173142407085673461610000010334356818979704251_" style="fill:#E0E0E0;" points="89.531,394.511 
		143.13,363.565 196.731,394.511 143.131,425.458 	"/>
	<polygon id="Shadow_00000178185177039783887930000012896745566388256690_" style="fill:#E0E0E0;" points="332.925,235.298 
		392.543,200.877 452.162,235.298 392.544,269.72 	"/>
	<polygon id="Shadow_00000051345133942171060190000016259931506035099056_" style="fill:#E0E0E0;" points="362.16,300.9 
		421.777,266.48 481.397,300.9 421.778,335.322 	"/>
	<path id="Shadow_00000005250312732890755200000017556671111712941205_" style="fill:#E0E0E0;" d="M259.086,481.126l-32.581-18.811
		c-2.438-1.407-2.438-3.69,0-5.097l122.083-70.49c2.438-1.408,6.391-1.408,8.828,0l32.581,18.811c2.438,1.408,2.438,3.69,0,5.097
		l-55.009,31.759l-67.074,38.73C265.476,482.533,261.524,482.534,259.086,481.126z"/>
</g>
<g id="Gift_Boxes">
	<g id="Gift_00000065034149230599343180000002667869145133949611_">
		<g id="Gift_00000036246509502509166100000015547453972287619761_">
			<g>
				<g id="XMLID_00000164497111301534669410000004852481217336611750_">
					<polygon id="XMLID_00000039833298751867487380000007928065413401821079_" style="fill:#E0E0E0;" points="75.48,365.258 
						28.152,337.902 28.152,279.67 27.154,279.094 27.154,265.142 75.48,293.044 					"/>
				</g>
				<polygon id="XMLID_00000110456152051718204800000007732054281619862435_" style="opacity:0.15;" points="75.478,306.996 
					57.361,296.535 28.152,279.67 28.152,281.676 75.478,308.997 				"/>
				<polygon id="XMLID_00000095330122156050101720000001283539124062805144_" style="fill:#F0F0F0;" points="75.479,365.258 
					122.549,338.102 122.549,279.816 123.806,279.094 123.806,265.142 75.48,293.044 				"/>
				<polygon id="XMLID_00000031168396225256818660000015810189933990548140_" style="opacity:0.1;" points="122.555,279.816 
					75.478,306.996 75.478,308.997 122.555,281.845 				"/>
				<g id="XMLID_00000021841324532184310500000014887546400733742518_">
					<polygon id="XMLID_00000031192783956754812470000007282288769126671780_" style="fill:#FAFAFA;" points="123.806,265.142 
						75.48,237.242 27.154,265.142 75.48,293.044 					"/>
				</g>
			</g>
			<g>
				<polygon style="fill:#EBEBEB;" points="95.106,353.935 95.106,281.712 102.957,277.18 102.957,349.405 				"/>
				<polygon style="fill:#E0E0E0;" points="55.854,353.935 55.854,281.712 48.003,277.18 48.003,349.405 				"/>
				<polygon style="opacity:0.15;" points="55.854,353.935 55.854,281.712 48.003,277.18 48.003,349.405 				"/>
				<g>
					<polygon style="fill:#F5F5F5;" points="102.957,277.18 54.631,249.279 46.78,253.812 95.106,281.712 					"/>
					<polygon style="opacity:0.25;" points="76.123,270.753 83.974,266.22 76.123,261.688 68.272,266.22 					"/>
					<polygon style="fill:#F5F5F5;" points="55.854,281.712 104.179,253.811 96.328,249.279 48.003,277.18 					"/>
				</g>
			</g>
		</g>
		<g>
			<g>
				<path style="fill:#E0E0E0;" d="M54.596,253.5c0.766,3.293,5.561,12.853,20.802,13.892l1.55-1.36c0,0-17.7-4.431-13.853-19.944
					L54.596,253.5z"/>
				<path style="fill:#EBEBEB;" d="M77.126,269.196c0,0,0.001-9.371-3.557-14.905c-3.558-5.534-10.475-8.202-10.475-8.202
					c-3.502,1.766-6.346,4.224-8.498,7.411c0,0,6.279-0.05,12.251,3.113c5.972,3.162,8.551,10.78,8.551,10.78L77.126,269.196z"/>
				<path style="fill:#FAFAFA;" d="M66.699,256.539l6.171-3.247c-1.037-1.364-2.262-2.525-3.488-3.497l-8.146,4.663
					C62.949,254.908,64.835,255.57,66.699,256.539z"/>
			</g>
			<g>
				<path style="fill:#E0E0E0;" d="M53.459,270.731c0,0,10.436,2.734,23.667-1.535l-1.002-1.803c0,0-6.898,1.161-11.771,0
					c-4.872-1.161-9.033-8.091-9.033-8.091L53.459,270.731z"/>
				<path style="fill:#EBEBEB;" d="M77.126,269.196c0,0-0.119-2.57-3.74-5.934c-4.745-4.409-14.015-4.409-18.066-3.96
					c0,0-2.424,1.575-3.12,5.13c-0.492,2.511,1.259,6.3,1.259,6.3s3.726-5.04,10.841-5.445c6.777-0.387,10.62,3.24,10.62,3.24
					L77.126,269.196z"/>
				<path style="fill:#FAFAFA;" d="M63.078,259.353c-1.648-0.184-3.222-0.248-4.631-0.224c-2.804,2.925-2.924,6.503-2.13,8.965
					c1.222-0.866,2.853-1.717,4.836-2.261C61.102,264.441,61.304,261.763,63.078,259.353z"/>
			</g>
			<g>
				<path style="fill:#E0E0E0;" d="M63.464,282.868c0,0,5.629-0.682,9.175-4.758c3.75-4.31,4.487-8.914,4.487-8.914l-1.728-1.803
					c0,0-1.807,4.784-6.732,6.967c-4.002,1.773-11.454,1.751-11.454,1.751L63.464,282.868z"/>
				<path style="fill:#EBEBEB;" d="M77.126,269.196l-1.728-1.803c0,0-6.688-1.353-10.296,0s-7.816,6.989-7.891,8.717
					c0.93,3.149,3.094,5.34,6.253,6.758c0,0-0.344-6.157,4.292-9.764C72.392,269.497,77.126,269.196,77.126,269.196z"/>
				<path style="fill:#FAFAFA;" d="M70.153,271.535l-5.872-3.728c-1.217,0.646-2.445,1.66-3.544,2.814l5.776,3.648
					c0.372-0.407,0.776-0.801,1.244-1.165C68.563,272.476,69.365,271.979,70.153,271.535z"/>
			</g>
			<g>
				<path style="fill:#E0E0E0;" d="M94.051,252.584c0.369,1.794-0.95,6.755-5.33,10.027c-4.38,3.272-11.773,4.486-11.773,4.486
					l-1.051-0.633c0,0,7.335-4.606,9.71-8.821c2.375-4.214,0.633-10.969,0.633-10.969L94.051,252.584z"/>
				<path style="fill:#EBEBEB;" d="M76.948,267.097c0,0,1.852-6.463,7.34-10.356c5.488-3.893,9.763-4.157,9.763-4.157
					c-1.676-2.851-4.211-4.887-7.811-5.91c0,0-6.261,3.689-8.646,9.322c-2.331,5.507-1.698,10.468-1.698,10.468L76.948,267.097z"/>
				<path style="fill:#FAFAFA;" d="M87.075,255.017c1.427-0.778,2.704-1.32,3.766-1.677c-1.455-1.672-4.25-3.872-7.024-4.951
					c-1.126,0.893-2.476,2.106-3.705,3.585C83.364,252.544,85.623,253.824,87.075,255.017z"/>
			</g>
			<g>
				<path style="fill:#E0E0E0;" d="M100.345,264.3c-2.149,2.903-9.581,7.737-22.593,3.794l-0.804-1.525c0,0,7.402,0.581,13.5-2.533
					c6.098-3.114,6.548-7.295,6.548-7.295L100.345,264.3z"/>
				<path style="fill:#EBEBEB;" d="M76.948,266.569c0,0,2.803-5.752,9.001-8.338c6.198-2.586,11.047-1.49,11.047-1.49
					s3.849,3.02,3.349,7.559c0,0-4.599-2.533-10.797-1.636c-6.198,0.897-11.034,3.7-11.796,5.43L76.948,266.569z"/>
				<path style="fill:#FAFAFA;" d="M93.966,262.556c1.818,0.167,3.334,0.563,4.435,0.939c-0.615-2.742-2.396-5.342-4.302-6.976
					c-0.797,0.006-1.737,0.08-2.784,0.233C92.729,258.206,93.53,260.629,93.966,262.556z"/>
			</g>
			<g>
				<path style="fill:#E0E0E0;" d="M92.141,284.331c-3.365,0.086-13.873-4.668-15.015-15.135l1.132-2.511
					c0,0,2.48,5.796,7.219,8.445c4.739,2.649,11.658,2.596,11.658,2.596L92.141,284.331z"/>
				<path style="fill:#EBEBEB;" d="M76.948,266.569c0,0,5.99-0.144,10.119,1.525c7.286,2.945,9.746,6.411,10.068,9.633
					c-0.967,2.922-2.669,5.085-4.994,6.605c0,0-2.991-7.781-6.664-11.053c-4.9-4.365-8.35-4.082-8.35-4.082L76.948,266.569z"/>
				<path style="fill:#FAFAFA;" d="M91.238,282.215c2.436-1.904,4.241-4.372,5.434-6.343c-0.546-1.461-1.596-2.939-3.424-4.372
					c-1.968,1.908-4.319,2.902-6.248,3.426C88.806,277.195,90.329,280.213,91.238,282.215z"/>
			</g>
		</g>
	</g>
	<g id="Gift_00000084521587959022430830000015839391925239736462_">
		<g id="Gift_00000181086797787720164550000008747832243166587583_">
			<g>
				<g id="XMLID_00000152238360628245053740000014692354187050472581_">
					<polygon id="XMLID_00000160900972071411766860000015831096723757150642_" style="fill:#E0E0E0;" points="143.13,420.108 
						95.801,392.753 95.801,351.777 94.803,351.202 94.803,337.25 143.129,365.152 					"/>
				</g>
				<polygon id="XMLID_00000156574753992016843780000002824754646388216708_" style="opacity:0.15;" points="143.128,379.104 
					125.01,368.643 95.801,351.777 95.801,353.784 143.128,381.104 				"/>
				<polygon id="XMLID_00000152944367743517818490000018131091092023291011_" style="fill:#F0F0F0;" points="143.129,420.108 
					190.198,392.953 190.198,351.924 191.455,351.202 191.455,337.25 143.129,365.152 				"/>
				<polygon id="XMLID_00000069372461408634540180000008594999114397097636_" style="opacity:0.1;" points="190.204,351.924 
					143.128,379.104 143.128,381.104 190.204,353.953 				"/>
				<g id="XMLID_00000158016238491998145580000003355881099377989506_">
					<polygon id="XMLID_00000147187031573572497570000018097763904045275539_" style="fill:#FAFAFA;" points="191.455,337.25 
						143.13,309.35 94.803,337.25 143.129,365.152 					"/>
				</g>
			</g>
			<g>
				<polygon style="fill:#EBEBEB;" points="162.755,408.785 162.755,353.82 170.606,349.288 170.606,404.256 				"/>
				<polygon style="fill:#E0E0E0;" points="123.503,408.785 123.503,353.82 115.652,349.288 115.652,404.256 				"/>
				<polygon style="opacity:0.15;" points="123.503,408.785 123.503,353.82 115.652,349.288 115.652,404.256 				"/>
				<g>
					<polygon style="fill:#F5F5F5;" points="170.606,349.288 122.28,321.387 114.429,325.92 162.755,353.82 					"/>
					<polygon style="opacity:0.25;" points="143.772,342.861 151.623,338.328 143.772,333.795 135.921,338.328 					"/>
					<polygon style="fill:#F5F5F5;" points="123.503,353.82 171.829,325.919 163.978,321.386 115.652,349.288 					"/>
				</g>
			</g>
		</g>
		<g>
			<g>
				<path style="fill:#E0E0E0;" d="M122.245,325.608c0.767,3.293,5.561,12.854,20.802,13.893l1.55-1.36
					c0,0-17.7-4.431-13.853-19.944L122.245,325.608z"/>
				<path style="fill:#EBEBEB;" d="M144.776,341.304c0,0,0.001-9.371-3.557-14.905c-3.557-5.534-10.475-8.202-10.475-8.202
					c-3.502,1.766-6.346,4.224-8.498,7.411c0,0,6.279-0.05,12.251,3.113c5.972,3.162,8.551,10.78,8.551,10.78L144.776,341.304z"/>
				<path style="fill:#FAFAFA;" d="M134.348,328.647l6.171-3.247c-1.037-1.364-2.262-2.525-3.488-3.497l-8.146,4.663
					C130.598,327.016,132.484,327.677,134.348,328.647z"/>
			</g>
			<g>
				<path style="fill:#E0E0E0;" d="M121.108,342.839c0,0,10.436,2.734,23.668-1.535l-1.003-1.803c0,0-6.898,1.161-11.771,0
					c-4.872-1.161-9.033-8.091-9.033-8.091L121.108,342.839z"/>
				<path style="fill:#EBEBEB;" d="M144.776,341.304c0,0-0.119-2.57-3.74-5.934c-4.745-4.41-14.015-4.41-18.066-3.96
					c0,0-2.424,1.575-3.12,5.13c-0.492,2.511,1.259,6.299,1.259,6.299s3.726-5.04,10.841-5.445c6.777-0.386,10.62,3.241,10.62,3.241
					L144.776,341.304z"/>
				<path style="fill:#FAFAFA;" d="M130.728,331.461c-1.648-0.184-3.222-0.247-4.631-0.224c-2.804,2.925-2.924,6.503-2.13,8.964
					c1.222-0.866,2.853-1.716,4.836-2.261C128.751,336.549,128.953,333.871,130.728,331.461z"/>
			</g>
			<g>
				<path style="fill:#E0E0E0;" d="M131.114,354.976c0,0,5.629-0.682,9.175-4.758c3.75-4.31,4.487-8.914,4.487-8.914l-1.729-1.803
					c0,0-1.807,4.784-6.732,6.967c-4.001,1.773-11.454,1.751-11.454,1.751L131.114,354.976z"/>
				<path style="fill:#EBEBEB;" d="M144.776,341.304l-1.729-1.803c0,0-6.688-1.353-10.296,0c-3.607,1.353-7.816,6.989-7.891,8.717
					c0.93,3.149,3.094,5.34,6.253,6.758c0,0-0.344-6.156,4.292-9.764C140.041,341.605,144.776,341.304,144.776,341.304z"/>
				<path style="fill:#FAFAFA;" d="M137.802,343.643l-5.872-3.728c-1.217,0.646-2.446,1.66-3.544,2.815l5.776,3.648
					c0.372-0.407,0.776-0.801,1.244-1.165C136.213,344.584,137.014,344.087,137.802,343.643z"/>
			</g>
			<g>
				<path style="fill:#E0E0E0;" d="M161.7,324.692c0.369,1.794-0.95,6.755-5.33,10.027c-4.38,3.272-11.773,4.486-11.773,4.486
					l-1.051-0.633c0,0,7.335-4.606,9.71-8.821c2.375-4.214,0.633-10.969,0.633-10.969L161.7,324.692z"/>
				<path style="fill:#EBEBEB;" d="M144.597,339.204c0,0,1.852-6.463,7.34-10.356c5.488-3.893,9.763-4.157,9.763-4.157
					c-1.677-2.851-4.211-4.887-7.811-5.911c0,0-6.262,3.689-8.646,9.322c-2.331,5.507-1.698,10.468-1.698,10.468L144.597,339.204z"
					/>
				<path style="fill:#FAFAFA;" d="M154.724,327.125c1.426-0.778,2.704-1.32,3.766-1.677c-1.455-1.672-4.25-3.872-7.024-4.951
					c-1.125,0.893-2.476,2.106-3.705,3.585C151.013,324.652,153.272,325.932,154.724,327.125z"/>
			</g>
			<g>
				<path style="fill:#E0E0E0;" d="M167.994,336.407c-2.149,2.902-9.581,7.737-22.593,3.794l-0.804-1.525
					c0,0,7.402,0.581,13.5-2.533c6.098-3.114,6.548-7.295,6.548-7.295L167.994,336.407z"/>
				<path style="fill:#EBEBEB;" d="M144.597,338.677c0,0,2.803-5.752,9.001-8.338c6.198-2.586,11.047-1.49,11.047-1.49
					s3.849,3.02,3.349,7.559c0,0-4.599-2.533-10.797-1.636c-6.198,0.897-11.034,3.7-11.796,5.43L144.597,338.677z"/>
				<path style="fill:#FAFAFA;" d="M161.615,334.664c1.818,0.167,3.334,0.563,4.435,0.939c-0.615-2.742-2.396-5.341-4.302-6.976
					c-0.797,0.006-1.737,0.08-2.784,0.233C160.378,330.313,161.18,332.737,161.615,334.664z"/>
			</g>
			<g>
				<path style="fill:#E0E0E0;" d="M159.79,356.439c-3.365,0.086-13.873-4.668-15.015-15.135l1.132-2.511
					c0,0,2.48,5.796,7.219,8.445c4.739,2.649,11.658,2.596,11.658,2.596L159.79,356.439z"/>
				<path style="fill:#EBEBEB;" d="M144.597,338.677c0,0,5.99-0.144,10.119,1.525c7.286,2.945,9.746,6.411,10.068,9.633
					c-0.967,2.922-2.669,5.085-4.994,6.605c0,0-2.991-7.781-6.665-11.053c-4.9-4.365-8.35-4.082-8.35-4.082L144.597,338.677z"/>
				<path style="fill:#FAFAFA;" d="M158.887,354.323c2.436-1.904,4.241-4.372,5.434-6.343c-0.546-1.461-1.596-2.939-3.425-4.372
					c-1.968,1.908-4.319,2.902-6.249,3.426C156.455,349.303,157.979,352.321,158.887,354.323z"/>
			</g>
		</g>
	</g>
	<g id="Gift_00000039830216263450801530000006877719186746338177_">
		<g id="Gift_00000066475194306615876490000003408134000497985720_">
			<g>
				<g id="XMLID_00000152971783041501124890000015874695103091474822_">
					<polygon id="XMLID_00000114788287104352260300000005751872077117495691_" style="fill:#E0E0E0;" points="392.542,263.876 
						339.899,233.449 339.899,143.635 338.789,142.995 338.789,127.477 392.542,158.512 					"/>
				</g>
				<polygon id="XMLID_00000085230733191147943340000006116760580456068490_" style="opacity:0.15;" points="392.54,174.03 
					372.388,162.394 339.899,143.635 339.899,145.867 392.54,176.255 				"/>
				<polygon id="XMLID_00000036234995095686951040000000550453339448743321_" style="fill:#F0F0F0;" points="392.541,263.876 
					444.896,233.672 444.896,143.799 446.294,142.995 446.294,127.477 392.542,158.512 				"/>
				<polygon id="XMLID_00000029767005390700187490000018044172082719017141_" style="opacity:0.1;" points="444.902,143.799 
					392.54,174.03 392.54,176.255 444.902,146.056 				"/>
				<g id="XMLID_00000077297331543376958180000014557704286388202420_">
					<polygon id="XMLID_00000078746427126236598900000018237132253276415631_" style="fill:#FAFAFA;" points="446.294,127.477 
						392.542,96.444 338.789,127.477 392.542,158.512 					"/>
				</g>
			</g>
			<g>
				<polygon style="fill:#EBEBEB;" points="414.372,251.282 414.372,145.908 423.104,140.866 423.104,246.244 				"/>
				<polygon style="fill:#E0E0E0;" points="370.711,251.282 370.711,145.908 361.979,140.866 361.979,246.244 				"/>
				<polygon style="opacity:0.15;" points="370.711,251.282 370.711,145.908 361.979,140.866 361.979,246.244 				"/>
				<g>
					<polygon style="fill:#F5F5F5;" points="423.104,140.866 369.351,109.833 360.619,114.874 414.372,145.908 					"/>
					<polygon style="opacity:0.25;" points="393.257,133.717 401.989,128.676 393.257,123.634 384.524,128.676 					"/>
					<polygon style="fill:#F5F5F5;" points="370.711,145.908 424.464,114.873 415.731,109.832 361.979,140.866 					"/>
				</g>
			</g>
		</g>
		<g>
			<g>
				<path style="fill:#E0E0E0;" d="M369.313,114.528c0.853,3.662,6.185,14.297,23.137,15.452l1.724-1.512
					c0,0-19.688-4.929-15.409-22.184L369.313,114.528z"/>
				<path style="fill:#EBEBEB;" d="M394.373,131.986c0,0,0.001-10.424-3.956-16.579c-3.957-6.155-11.651-9.123-11.651-9.123
					c-3.895,1.964-7.059,4.698-9.453,8.244c0,0,6.984-0.055,13.626,3.462c6.642,3.517,9.511,11.99,9.511,11.99L394.373,131.986z"/>
				<path style="fill:#FAFAFA;" d="M382.775,117.908l6.864-3.611c-1.153-1.517-2.516-2.809-3.88-3.889l-9.06,5.187
					C378.604,116.094,380.701,116.829,382.775,117.908z"/>
			</g>
			<g>
				<path style="fill:#E0E0E0;" d="M368.048,133.693c0,0,11.608,3.041,26.325-1.708l-1.115-2.006c0,0-7.673,1.291-13.092,0
					c-5.419-1.291-10.047-8.999-10.047-8.999L368.048,133.693z"/>
				<path style="fill:#EBEBEB;" d="M394.373,131.986c0,0-0.133-2.858-4.16-6.601c-5.277-4.905-15.589-4.905-20.095-4.404
					c0,0-2.697,1.752-3.471,5.706c-0.547,2.793,1.401,7.007,1.401,7.007s4.145-5.605,12.058-6.057
					c7.538-0.43,11.812,3.604,11.812,3.604L394.373,131.986z"/>
				<path style="fill:#FAFAFA;" d="M378.747,121.038c-1.833-0.204-3.584-0.275-5.151-0.25c-3.119,3.254-3.252,7.234-2.369,9.971
					c1.359-0.963,3.173-1.909,5.379-2.515C376.549,126.697,376.774,123.718,378.747,121.038z"/>
			</g>
			<g>
				<path style="fill:#E0E0E0;" d="M379.177,147.193c0,0,6.261-0.759,10.205-5.292c4.172-4.794,4.991-9.915,4.991-9.915
					l-1.923-2.006c0,0-2.009,5.321-7.489,7.749c-4.451,1.973-12.74,1.947-12.74,1.947L379.177,147.193z"/>
				<path style="fill:#EBEBEB;" d="M394.373,131.986l-1.923-2.006c0,0-7.439-1.505-11.452,0c-4.012,1.505-8.693,7.774-8.777,9.696
					c1.035,3.502,3.441,5.94,6.955,7.516c0,0-0.382-6.848,4.774-10.86C389.107,132.32,394.373,131.986,394.373,131.986z"/>
				<path style="fill:#FAFAFA;" d="M386.616,134.588l-6.532-4.147c-1.353,0.719-2.72,1.847-3.942,3.131l6.424,4.057
					c0.414-0.452,0.864-0.891,1.383-1.296C384.848,135.634,385.74,135.081,386.616,134.588z"/>
			</g>
			<g>
				<path style="fill:#E0E0E0;" d="M413.198,113.508c0.411,1.996-1.057,7.513-5.929,11.153c-4.872,3.639-13.095,4.989-13.095,4.989
					l-1.169-0.704c0,0,8.159-5.124,10.801-9.811c2.642-4.688,0.704-12.201,0.704-12.201L413.198,113.508z"/>
				<path style="fill:#EBEBEB;" d="M394.174,129.65c0,0,2.059-7.188,8.164-11.519c6.105-4.33,10.859-4.624,10.859-4.624
					c-1.865-3.171-4.684-5.436-8.688-6.574c0,0-6.965,4.104-9.616,10.369c-2.593,6.126-1.888,11.644-1.888,11.644L394.174,129.65z"
					/>
				<path style="fill:#FAFAFA;" d="M405.439,116.215c1.587-0.865,3.008-1.469,4.189-1.866c-1.618-1.859-4.727-4.307-7.813-5.507
					c-1.252,0.993-2.754,2.343-4.121,3.987C401.31,113.464,403.823,114.888,405.439,116.215z"/>
			</g>
			<g>
				<path style="fill:#E0E0E0;" d="M420.199,126.539c-2.391,3.229-10.657,8.606-25.13,4.22l-0.894-1.696
					c0,0,8.233,0.646,15.016-2.817c6.783-3.463,7.283-8.114,7.283-8.114L420.199,126.539z"/>
				<path style="fill:#EBEBEB;" d="M394.174,129.063c0,0,3.118-6.398,10.012-9.274s12.287-1.657,12.287-1.657
					s4.281,3.359,3.725,8.408c0,0-5.115-2.818-12.009-1.82c-6.894,0.998-12.273,4.116-13.121,6.04L394.174,129.063z"/>
				<path style="fill:#FAFAFA;" d="M413.103,124.601c2.022,0.186,3.708,0.626,4.933,1.044c-0.684-3.05-2.665-5.941-4.785-7.759
					c-0.887,0.007-1.932,0.089-3.097,0.259C411.728,119.761,412.619,122.457,413.103,124.601z"/>
			</g>
			<g>
				<path style="fill:#E0E0E0;" d="M411.073,148.821c-3.742,0.096-15.431-5.192-16.701-16.835l1.259-2.793
					c0,0,2.758,6.447,8.029,9.393c5.271,2.947,12.967,2.888,12.967,2.888L411.073,148.821z"/>
				<path style="fill:#EBEBEB;" d="M394.174,129.063c0,0,6.663-0.16,11.255,1.696c8.105,3.275,10.841,7.131,11.199,10.715
					c-1.075,3.25-2.969,5.656-5.555,7.346c0,0-3.327-8.655-7.413-12.294c-5.45-4.855-9.288-4.54-9.288-4.54L394.174,129.063z"/>
				<path style="fill:#FAFAFA;" d="M410.069,146.467c2.71-2.117,4.717-4.863,6.044-7.055c-0.608-1.625-1.776-3.269-3.809-4.863
					c-2.189,2.122-4.804,3.228-6.95,3.811C407.364,140.883,409.059,144.24,410.069,146.467z"/>
			</g>
		</g>
	</g>
	<g id="Gift_00000006680155629752462760000015061981591110748302_">
		<g id="Gift_00000021078082283139173430000000867168700296144529_">
			<g>
				<g id="XMLID_00000147913131801724855630000011750094129700634754_">
					<polygon id="XMLID_00000126314996131525878610000015718414530223851909_" style="fill:#E0E0E0;" points="421.777,329.371 
						369.134,298.944 369.134,277.606 368.024,276.965 368.024,261.447 421.776,292.482 					"/>
				</g>
				<polygon id="XMLID_00000161593523123112061310000013099795845501378204_" style="opacity:0.15;" points="421.775,308 
					401.623,296.365 369.134,277.606 369.134,279.837 421.775,310.226 				"/>
				<polygon id="XMLID_00000016040636234164131780000009181681929499045765_" style="fill:#F0F0F0;" points="421.776,329.371 
					474.13,299.167 474.13,277.769 475.529,276.965 475.529,261.447 421.776,292.482 				"/>
				<polygon id="XMLID_00000111153209452839863390000012925051561969864121_" style="opacity:0.1;" points="474.137,277.769 
					421.775,308 421.775,310.226 474.137,280.026 				"/>
				<g id="XMLID_00000125561036578614721480000013030863583943903918_">
					<polygon id="XMLID_00000127009728622464082140000016000139930097514382_" style="fill:#FAFAFA;" points="475.529,261.447 
						421.777,230.414 368.024,261.447 421.776,292.482 					"/>
				</g>
			</g>
			<g>
				<polygon style="fill:#EBEBEB;" points="443.606,316.777 443.606,279.878 452.339,274.836 452.339,311.739 				"/>
				<polygon style="fill:#E0E0E0;" points="399.946,316.777 399.946,279.878 391.214,274.836 391.214,311.739 				"/>
				<polygon style="opacity:0.15;" points="399.946,316.777 399.946,279.878 391.214,274.836 391.214,311.739 				"/>
				<g>
					<polygon style="fill:#F5F5F5;" points="452.339,274.836 398.586,243.803 389.854,248.844 443.606,279.878 					"/>
					<polygon style="opacity:0.25;" points="422.491,267.688 431.224,262.646 422.491,257.604 413.759,262.646 					"/>
					<polygon style="fill:#F5F5F5;" points="399.946,279.878 453.698,248.844 444.966,243.802 391.214,274.836 					"/>
				</g>
			</g>
		</g>
		<g>
			<g>
				<path style="fill:#E0E0E0;" d="M398.547,248.498c0.853,3.662,6.185,14.297,23.137,15.452l1.724-1.512
					c0,0-19.688-4.929-15.409-22.184L398.547,248.498z"/>
				<path style="fill:#EBEBEB;" d="M423.608,265.956c0,0,0.001-10.424-3.956-16.579c-3.957-6.156-11.651-9.123-11.651-9.123
					c-3.895,1.964-7.059,4.698-9.453,8.243c0,0,6.984-0.055,13.626,3.462c6.642,3.517,9.511,11.99,9.511,11.99L423.608,265.956z"/>
				<path style="fill:#FAFAFA;" d="M412.009,251.878l6.864-3.611c-1.153-1.517-2.516-2.809-3.88-3.889l-9.06,5.187
					C407.839,250.064,409.936,250.799,412.009,251.878z"/>
			</g>
			<g>
				<path style="fill:#E0E0E0;" d="M397.282,267.664c0,0,11.608,3.042,26.325-1.707l-1.115-2.006c0,0-7.673,1.291-13.092,0
					c-5.419-1.291-10.047-8.999-10.047-8.999L397.282,267.664z"/>
				<path style="fill:#EBEBEB;" d="M423.608,265.956c0,0-0.133-2.858-4.16-6.6c-5.278-4.905-15.589-4.905-20.095-4.404
					c0,0-2.697,1.752-3.471,5.706c-0.547,2.793,1.401,7.007,1.401,7.007s4.145-5.605,12.058-6.057
					c7.538-0.43,11.812,3.604,11.812,3.604L423.608,265.956z"/>
				<path style="fill:#FAFAFA;" d="M407.982,255.008c-1.833-0.205-3.584-0.275-5.151-0.25c-3.119,3.254-3.252,7.234-2.369,9.971
					c1.359-0.963,3.173-1.909,5.379-2.515C405.783,260.667,406.009,257.688,407.982,255.008z"/>
			</g>
			<g>
				<path style="fill:#E0E0E0;" d="M408.411,281.163c0,0,6.261-0.759,10.205-5.292c4.171-4.794,4.991-9.915,4.991-9.915
					l-1.923-2.006c0,0-2.009,5.321-7.488,7.749c-4.451,1.973-12.74,1.947-12.74,1.947L408.411,281.163z"/>
				<path style="fill:#EBEBEB;" d="M423.608,265.956l-1.923-2.006c0,0-7.44-1.505-11.452,0c-4.012,1.504-8.693,7.774-8.777,9.696
					c1.034,3.502,3.441,5.939,6.955,7.516c0,0-0.382-6.848,4.774-10.86C418.341,266.29,423.608,265.956,423.608,265.956z"/>
				<path style="fill:#FAFAFA;" d="M415.851,268.558l-6.532-4.147c-1.354,0.718-2.72,1.847-3.942,3.13l6.424,4.057
					c0.413-0.452,0.864-0.891,1.383-1.296C414.083,269.604,414.975,269.051,415.851,268.558z"/>
			</g>
			<g>
				<path style="fill:#E0E0E0;" d="M442.432,247.478c0.411,1.996-1.057,7.513-5.929,11.153c-4.872,3.639-13.095,4.989-13.095,4.989
					l-1.169-0.704c0,0,8.159-5.124,10.801-9.811c2.641-4.688,0.704-12.201,0.704-12.201L442.432,247.478z"/>
				<path style="fill:#EBEBEB;" d="M423.409,263.621c0,0,2.059-7.189,8.164-11.519c6.105-4.33,10.86-4.624,10.86-4.624
					c-1.865-3.171-4.684-5.436-8.688-6.574c0,0-6.965,4.104-9.616,10.369c-2.593,6.126-1.888,11.643-1.888,11.643L423.409,263.621z"
					/>
				<path style="fill:#FAFAFA;" d="M434.673,250.185c1.587-0.865,3.008-1.468,4.189-1.865c-1.618-1.859-4.727-4.307-7.813-5.507
					c-1.252,0.993-2.754,2.343-4.12,3.987C430.545,247.434,433.058,248.858,434.673,250.185z"/>
			</g>
			<g>
				<path style="fill:#E0E0E0;" d="M449.433,260.51c-2.391,3.228-10.657,8.606-25.13,4.22l-0.894-1.696
					c0,0,8.233,0.646,15.016-2.818c6.783-3.463,7.283-8.114,7.283-8.114L449.433,260.51z"/>
				<path style="fill:#EBEBEB;" d="M423.409,263.034c0,0,3.118-6.398,10.012-9.275c6.894-2.876,12.287-1.657,12.287-1.657
					s4.281,3.359,3.725,8.408c0,0-5.115-2.818-12.009-1.82c-6.894,0.998-12.273,4.116-13.121,6.039L423.409,263.034z"/>
				<path style="fill:#FAFAFA;" d="M442.338,258.571c2.023,0.186,3.708,0.626,4.934,1.044c-0.684-3.05-2.665-5.941-4.785-7.759
					c-0.887,0.007-1.932,0.089-3.097,0.259C440.962,253.731,441.853,256.427,442.338,258.571z"/>
			</g>
			<g>
				<path style="fill:#E0E0E0;" d="M440.308,282.791c-3.742,0.096-15.431-5.192-16.701-16.835l1.258-2.793
					c0,0,2.758,6.446,8.029,9.393c5.271,2.947,12.967,2.888,12.967,2.888L440.308,282.791z"/>
				<path style="fill:#EBEBEB;" d="M423.409,263.034c0,0,6.663-0.16,11.255,1.696c8.105,3.275,10.84,7.131,11.199,10.715
					c-1.075,3.25-2.969,5.656-5.555,7.347c0,0-3.327-8.655-7.413-12.294c-5.45-4.855-9.288-4.541-9.288-4.541L423.409,263.034z"/>
				<path style="fill:#FAFAFA;" d="M439.304,280.437c2.71-2.118,4.717-4.863,6.044-7.055c-0.607-1.625-1.776-3.269-3.809-4.863
					c-2.189,2.122-4.804,3.228-6.95,3.81C436.599,274.853,438.293,278.21,439.304,280.437z"/>
			</g>
		</g>
	</g>
</g>
<g id="Character">
	<g id="Character_00000086649833606523997890000009087692209539424412_">
		<g id="Bottom_00000061444672104785561830000013375113511954912957_">
			<g>
				<g>
					<path style="fill:#FFBDA7;" d="M81.287,417.469c0.821-3.491-2.65-5.699-4.286-7.707c-2.531-3.106-3.316-10.335-3.288-14.026
						c0.035-4.604-0.519-7.89,2.347-12.053c3.393-4.928,8.116-10.699,23.923-24.822l-19.471-19.559
						c-4.075,6.388-14.349,28.77-14.349,28.77l-0.679,1.387c-1.933,2.316-3.182,3.888-6.138,5.872
						c-0.014,0.01-1.066,0.544-1.08,0.553c-1.856,1.266-6.576,2.611-6.495,7.024c0.081,4.413,1.803,5.504,3.798,9.117
						c1.271,2.303,2.201,3.472,2.293,7.88c0.075,3.551-0.075,7.51-0.112,10.688c-0.031,2.674,2.441,6.561,7.588,8.3
						C72.837,421.427,80.479,420.902,81.287,417.469z"/>
					<g>
						<g id="XMLID_00000059274136820407817330000011833884732077400221_">
							<path style="fill:#263238;" d="M49.102,383.031c-1.299,1.612-4.718,7.074-5.625,9.68l5.171,7.243l4.34-7.308
								C52.988,392.646,49.847,388.078,49.102,383.031z"/>
							<path d="M48.648,399.953l7.099-0.487c0,0,0.613-2.412-0.7-4.381c-1.313-1.969-2.059-2.44-2.059-2.44L48.648,399.953z"/>
							<path style="fill:#263238;" d="M50.527,381.397c0,0-1.039,0.761-1.371,1.477c-0.334,0.72,0.049,5.261,1.525,7.461
								c1.476,2.2,3.88,4.533,4.474,7.665c0.593,3.133-0.652,10.358,0.597,14.734c1.249,4.376,5.472,9.381,14.68,10.56
								c6.582,0.843,9.065-0.402,11.266-1.775c0.796-2.839,0.719-3.58-2.878-5.978C75.222,413.142,50.527,381.397,50.527,381.397z"
								/>
							<path id="XMLID_00000005240735111905738130000000678994440474469510_" style="fill:#37474F;" d="M62.786,369.836
								c-2.952,3.51-4.01,4.86-6.726,6.435c-3.286,1.906-3.967,2.673-5.533,5.125c-0.663,3.793,0.102,5.364,3.587,10.213
								c2.385,3.319,3.169,5.501,3.101,10.064c-0.081,5.521-1.962,10.558,4.766,16.208c5.241,4.401,16.702,4.693,19.814,1.634
								c2.661-7.535-4.426-7.141-6.033-15.125c-0.89-4.423-0.963-11.099,0.422-15.516c0.478-1.526,1.513-4.417,2.322-5.79
								c1.102-1.872,2.083-3.24,1.195-4.226l-1.679,2.056c-1.667,0.366-5.702-0.506-8.359-2.643
								c-6.413-5.159-4.179-8.816-4.179-8.816l0.679-1.387C65.513,367.292,64.461,367.845,62.786,369.836z"/>
						</g>
					</g>
				</g>
				<path style="fill:#263238;" d="M134.047,193.923c1.618,10.881,6.863,24.532,9.776,50.298
					c2.732,24.164,3.945,36.766,2.215,48.782c-0.617,4.281-2.822,9.297-7.032,15.634c-13.186,19.85-39.138,51.088-39.138,51.088
					s-5.886-0.097-13.014-5.774c-6.888-5.485-7.19-13.604-7.19-13.604s0.692-4.532,11.575-22.823
					c10.883-18.29,12.271-38.08,12.271-38.08l-7.09-77.599C113.312,203.343,126.172,200.251,134.047,193.923z"/>
				<path d="M86.854,353.95c-6.887-5.485-7.19-13.604-7.19-13.604s0.692-4.532,11.575-22.823
					c10.883-18.29,12.271-38.08,12.271-38.08l-5.428-59.407c13.22-2.041,31.665-1.874,31.665-1.874
					c0.349,8.5-1.534,19.029-13.781,25.362c0,0,2.258,41.785,2.544,54.01c0.218,9.326-2.5,33.069-3.801,43.814
					c-8.236,10.424-14.841,18.374-14.841,18.374S93.982,359.627,86.854,353.95z"/>
			</g>
			<g>
				<path style="fill:#FFBDA7;" d="M109.245,398.647l0.081-1.877l1.844-38.15l-26.847,6.701l5.966,30.586l0.203,1.593
					c0,0,0.286,7.772,12.277,8.217C108.912,405.944,109.245,398.647,109.245,398.647z"/>
				<g>
					<polygon points="94.739,433.437 104.057,429.984 104.36,421.134 94.875,424.708 					"/>
					<path style="fill:#263238;" d="M85.676,413.586c-0.382,3.256,2.293,15.752,2.293,15.752l6.769,4.099l0.137-8.729
						c0,0,1.883,1.605,3.869,6.221c1.878,4.365,4.457,8.558,8.884,10.765c4.426,2.207,12.081,3.111,18.58,2.262
						c4.626-0.604,7.473-2.581,8.242-3.754c0.356-0.544,0.273-1.845,0.273-1.845L85.676,413.586z"/>
					<path style="fill:#37474F;" d="M109.326,396.77c1.279-0.1,1.179,1.12,2.751,8.438c1.175,5.472,3.742,14.906,13.699,21.125
						c4.101,2.562,9.777,4.184,8.947,12.024c-2.843,3.807-12.759,4.81-18.701,3.763c-11.995-2.115-13.782-6.852-16.778-13.904
						c-2.403-5.656-4.517-6.259-7.722-8.525c-2.117-1.497-5.004-3.656-5.846-6.104c-0.151-5.376,1.878-8.884,2.604-11.597
						c0.683-2.549,0.291-5.687,2.009-6.082l0.203,1.593c0,0,1.605,4.307,9.951,4.47c8.346,0.163,8.801-3.322,8.801-3.322
						L109.326,396.77z"/>
				</g>
			</g>
			<g>
				<path style="fill:#263238;" d="M134.047,193.923c0,0,2.147,14.053-2.432,26.865c-3.978,11.129-11.616,17.398-19.656,20.01
					c0,0,2.668,49.979,3.385,56.934c0.717,6.955-0.953,32.164-2.464,48.758c-1.511,16.594-1.965,22.275-1.965,22.275
					s-3.544,3.739-13.472,3.93c-9.928,0.191-13.076-3.907-13.076-3.907s-6.273-19.177-6.538-34.229
					c-0.151-8.629,1.744-12.914,0.1-21.464c-1.643-8.55-13.769-46.625-15.819-64.676c-2.05-18.051,1.024-33.912,13.871-52.387
					C89.798,205.045,121.47,202.779,134.047,193.923z"/>
				<path d="M81.641,198.818c-6.96,9.602-16.988,29.404-9.871,57.768c2.023,8.065,4.042,15.849,5.995,23.376
					c4.572,17.629,8.183,31.552,8.671,36.866c0.27,2.94-0.06,5.733-0.439,8.965c-0.597,5.068-1.34,11.374-0.003,21.086
					c1.249,9.079,3.057,18.62,4.365,25.077c-0.419-0.108-0.815-0.222-1.184-0.343c-1.301-6.458-3.047-15.746-4.265-24.591
					c-1.353-9.841-0.603-16.22,0.001-21.346c0.373-3.176,0.697-5.919,0.437-8.751c-0.48-5.232-4.083-19.12-8.642-36.703
					c-1.953-7.53-3.973-15.316-5.997-23.384c-7.168-28.569,2.831-48.6,9.893-58.429C80.943,198.55,81.289,198.686,81.641,198.818z"
					/>
			</g>
		</g>
		<g id="Top_00000047035556053529049600000001075857242144386744_">
			<g>
				<g>
					<path style="fill:#FFBDA7;" d="M179.987,167.279c4.521,1.66,7.674,0.727,11.008,0.809c4.23,0.105,7.825,1.431,13.823,2.829
						c1.028,0.24,2.052,0.492,3.077,0.747c0.497,0.123,0.992,0.268,1.497,0.325c0.479,0.055,0.883,0.119,0.988,0.721
						c0.074,0.425-0.097,0.856-0.331,1.219c-0.774,1.203-2.201,1.849-3.615,2.067c-1.414,0.219-2.855,0.076-4.285,0.05
						c-1.096-0.02-0.369,0.998,0.045,1.426c2.034,2.107,10.121,2.406,12.9,3.147c1.26,0.336,2.77,0.018,3.3,1.482
						c0.177,0.489,0.262,1.018,0.531,1.462c0.284,0.47,0.745,0.8,1.141,1.18c0.591,0.566,1.066,1.296,1.155,2.109
						c0.089,0.813-0.278,1.705-1.007,2.076c-0.577,0.294-1.305,0.246-1.823,0.634c-0.242,0.181-0.413,0.44-0.625,0.656
						c-0.951,0.964-2.49,0.88-3.826,1.103c-1.155,0.193-2.152,0.781-3.28,1.028c-1.211,0.264-2.366,0.538-3.611,0.604
						c-2.469,0.133-6.117-0.067-8.544-0.485c-3.541-0.61-7.466-2.537-10.477-4.539c-1.753-1.165-3.3-2.667-8.689-3.794
						c-5.389-1.127-25.983-4.572-33.713-8.03c-2.803-1.254-4.416-2.893-13.853-9.293c-14.015-9.505-36.142-26.155-36.142-26.155
						l10.213-14.431c9.747-2.155,20.142,6.848,26.5,12.123c11.638,9.655,20.654,16.209,20.654,16.209
						S176.153,165.872,179.987,167.279z"/>
				</g>
				<path style="fill:#F0997A;" d="M199.049,177.356c-3.156,3.409-9.322,3.16-12.052,2.234c0,0,3.828,2.336,6.94,1.694
					C197.347,180.579,198.367,179.132,199.049,177.356z"/>
			</g>
			<g>
				<path style="fill:#BA68C8;" d="M62.067,171.719c0,0,5.329-5.217,6.765-16.727c0.652-5.223-0.236-10.776-2.453-18.642
					l14.815-4.817c0,0,1.799-2.171,12.77-4.179l11.879-1.126c0,0,19.788,9.706,27.234,19.471c4.067,5.334,8.275,16.697,1.128,25.336
					c0.557,7.736,0.66,23.501,0.66,23.501s-4.206,7.621-24.415,9.927c-28.985,3.307-37.063-7.254-37.063-7.254
					C72.817,188.909,65.122,179.693,62.067,171.719z"/>
				<path style="opacity:0.2;fill:#FFFFFF;" d="M62.067,171.719c0,0,5.329-5.217,6.765-16.727
					c0.652-5.223-0.236-10.776-2.453-18.642l14.815-4.817c0,0,1.799-2.171,12.77-4.179l11.879-1.126c0,0,19.788,9.706,27.234,19.471
					c4.067,5.334,8.275,16.697,1.128,25.336c0.557,7.736,0.66,23.501,0.66,23.501s-4.206,7.621-24.415,9.927
					c-28.985,3.307-37.063-7.254-37.063-7.254C72.817,188.909,65.122,179.693,62.067,171.719z"/>
				<path style="fill:#BA68C8;" d="M112.682,173.727c0,0-4.184,7.084-15.403,6.818c-11.219-0.265-14.555-8.227-14.555-8.227
					s0.866,10.731,14.271,11C110.195,183.584,112.682,173.727,112.682,173.727z"/>
			</g>
			<g id="Head_00000121990279939367831570000014056153413812207545_">
				<path style="fill:#263238;" d="M71.701,73.746c1.489-1.886,3.893-3.336,6.226-3.91c2.333-0.574,3.765-0.545,5.989-1.456
					c2.115-0.866,3.937-2.339,6.043-3.227c4.643-1.958,10.24-0.74,14.231,2.335c1.763,1.358,3.414,3.119,5.615,3.45
					c1.087,0.163,2.192-0.051,3.292-0.048c3.479,0.008,6.692,2.257,8.535,5.208c1.447,2.317,2.147,5.013,2.428,7.709
					c0.28,2.689-0.656,5.196-0.491,7.871c0.12,1.959,1.343,3.689,2.543,5.171c1.615,1.994,2.941,3.525,3.734,6.055
					c0.611,1.948,0.988,4.029,0.59,6.031c-0.399,2.002-1.694,3.913-3.612,4.613c0.723-1.899,0.412-4.156-0.795-5.789
					c0.448,1.798-0.057,3.739-1.043,5.308c-0.986,1.569-2.415,2.81-3.915,3.898c-3.391,2.458-7.481,4.262-11.725,4.267
					c-4.443,0.005-8.951-1.513-13.358-0.354c-1.223,0.321-2.381,0.845-3.561,1.297c-2.022,0.774-4.124,1.338-6.261,1.684
					c-2.05,0.332-4.128,0.182-6.153,0.472c-3.312,0.474-6.795-0.301-9.527-2.255c-3.445-2.464-5.886-7.448-5.761-11.682
					c-0.603,0.688-1.077,1.776-1.363,3.329c-1.956-2.336-2.692-5.641-1.911-8.587c0.616-2.322,2.104-4.412,2.28-6.808
					c0.153-2.072-0.701-4.078-0.927-6.144c-0.527-4.816,2.861-9.762,7.543-11.01C69.673,77.923,70.751,74.95,71.701,73.746z"/>
				<path style="fill:#FFBDA7;" d="M71.755,99.793c2.836-1.191,5.301-0.203,6.938,2.758c1.424,2.574,4.212,1.557,3.408-2.497
					c6.248-6.357-1.387-10.026,3.737-16.142c3.195-3.815,10.311-3.061,13.223-0.839c1.171-2.386,4.575-4.533,7.92-3.483
					c3.017,0.947,4.966,2.662,6.534,6.742c1.632,4.249,0.12,5.113,0.946,8.126c0.32,1.166,1.577,3.447,1.727,6.443
					c0.71,14.223-2.124,17.912-5.184,20.355c-2.103,1.68-4.829,2.621-9.512,2.824l0.434,6.197c0,0,6.076,6.737,7.086,16.581
					c-13.545-3.465-20.582-8.04-28.504-14.004l-1.352-20.623l0-0.001c-0.607,1.644-3.854,3.532-7.268,0.926
					C67.568,109.857,66.752,101.895,71.755,99.793z"/>
				<g>
					<path id="XMLID_00000033366248931052025410000018169781746201085853_" style="fill:#263238;" d="M112.018,92.778l-4.621-1.706
						c0.427-1.304,1.807-1.979,3.083-1.508C111.756,90.036,112.444,91.475,112.018,92.778z"/>
					<path id="XMLID_00000036234380584697914700000004317504883262550945_" style="fill:#263238;" d="M93.964,91.626l-4.239,2.508
						c-0.742-1.154-0.395-2.651,0.776-3.343C91.671,90.099,93.222,90.473,93.964,91.626z"/>
					<path id="XMLID_00000113336136476660679250000013530066258956756884_" style="fill:#B16668;" d="M96.478,108.57l6.89,2.135
						c-0.522,1.94-2.685,3.015-4.844,2.258C96.645,112.305,95.955,110.509,96.478,108.57z"/>
					<path style="fill:#F28F8F;" d="M100.506,113.146c-0.24-1.91-1.874-3.372-3.84-3.324c-0.12,0.003-0.232,0.03-0.349,0.044
						c0.024,1.404,0.758,2.59,2.207,3.098C99.203,113.201,99.877,113.241,100.506,113.146z"/>
					<polygon id="XMLID_00000139289176494760495880000002534774112474327736_" style="fill:#F0997A;" points="100.68,93.976 
						102.18,106.687 109.142,104.063 					"/>
					<path style="fill:#263238;" d="M95.478,97.662c0.075,1.137-0.787,2.119-1.923,2.193c-1.137,0.074-2.119-0.787-2.193-1.923
						c-0.075-1.137,0.787-2.119,1.923-2.193C94.421,95.664,95.403,96.525,95.478,97.662z"/>
					<path style="fill:#263238;" d="M111.508,96.761c0.074,1.137-0.787,2.119-1.923,2.193c-1.137,0.075-2.119-0.787-2.193-1.923
						c-0.075-1.137,0.787-2.119,1.923-2.193C110.451,94.763,111.434,95.624,111.508,96.761z"/>
				</g>
				<g id="XMLID_00000142141013328841479990000004630061490463078836_">
					<path id="XMLID_00000123440620339416128760000018410780815538728624_" style="fill:#F0997A;" d="M101.493,124.079
						c-4.576-0.123-12.334-0.121-16.257-5.124c0,0,0.586,3.034,5.316,5.256c3.325,1.563,11.072,2.016,11.072,2.016L101.493,124.079z
						"/>
				</g>
			</g>
		</g>
		<g id="Arm_00000128487357604860674730000009530066354703728543_">
			<g id="Arm_00000163031977424613344200000010436483571585682829_">
				<g>
					<path style="fill:#F0997A;" d="M56.415,239.903c-1.34-1.463-3.066-2.755-3.623-4.741c-0.287-1.023-0.189-2.204,0.481-3.029
						c0.14-0.172,0.307-0.336,0.362-0.551c0.046-0.178,0.006-0.366-0.028-0.547c-0.141-0.753-0.18-1.563,0.148-2.256
						c0.278-0.587,0.816-1.044,1.44-1.223c-0.357-1.1-0.347-2.317,0.029-3.411c0.445-1.293,1.782-2.327,2.659-0.877
						c0.428,0.707,0.741,1.487,1.012,2.266c0.679,1.945,1.085,3.998,1.292,6.045c0.216,2.144,0.728,8.208-2.59,8.495
						C57.338,240.096,56.605,240.11,56.415,239.903z"/>
					<path style="fill:#FFBDA7;" d="M66.347,136.35c-14.472,4.135-16.837,10.998-24.448,21.477
						c-7.511,10.341-13.211,17.908-16.367,23.715c-3.326,6.119-3.666,8.581,3.488,16.401c3.724,4.071,8.223,8.109,15.014,14.168
						c3.012,2.688,11.24,9.839,12.461,11.049c1.045,1.037,2.185,3.557,2.535,5.048c0.059,0.253,0.093,0.512,0.103,0.771
						c0.044,1.106-0.262,2.193-0.395,3.293c-0.177,1.466-0.043,2.947,0.174,4.401c0.182,1.218,0.502,2.397-0.877,3.041
						c-0.499,0.232-1.072,0.23-1.621,0.191c0.971,0.687,1.986,1.341,3.12,1.701c1.133,0.36,2.41,0.402,3.481-0.115
						c1.04-0.502,3.027-1.499,4.133-1.829c0.597-0.178,1.239-0.148,1.841-0.307c0.618-0.164,1.181-0.531,1.579-1.032
						c0.632-0.795,0.893-1.937,1.785-2.423c0.426-0.232,0.93-0.27,1.38-0.451c0.92-0.37,1.512-1.314,1.714-2.284
						c0.203-0.971,0.076-1.977-0.071-2.958c-0.395-2.636-0.846-5.506-1.5-8.09c-0.851-3.357-1.798-5.09-3.153-6.983
						c-4.448-6.214-21.344-27.397-21.344-27.397l14.337-17.513C67.131,167.492,75.009,147.408,66.347,136.35z"/>
					<path style="fill:#F0997A;" d="M49.38,187.734c-3.886,3.807-9.915,4.112-12.137,3.975c7.834,3.194,13.672-2.046,13.672-2.046
						L49.38,187.734z"/>
				</g>
			</g>
		</g>
	</g>
</g>
<g id="Device">
	<g id="Mobile_00000072276562642996158010000008138654688424046981_">
		<g id="Mobile">
			<g>
				<path style="fill:#37474F;" d="M339.581,350.549L319.202,51.761c-0.524-7.688-4.789-9.721-8.58-11.601
					c-3.791-1.88-9.896-2.94-14.905-0.048L167.478,114.15c-5.009,2.892-8.762,9.747-8.382,15.312l20.378,298.789
					c0.38,5.565,4.369,8.765,8.16,10.646c3.791,1.88,10.317,3.896,15.325,1.004l128.24-74.04
					C336.207,362.969,340.108,358.299,339.581,350.549z"/>
				<path style="fill:#263238;" d="M331.307,353.556L199.438,429.69l-20.423-300.081l-17.75-8.805
					c-1.516,2.771-2.359,5.875-2.17,8.657l20.378,298.789c0.38,5.565,4.369,8.765,8.16,10.646c3.791,1.88,10.317,3.896,15.325,1.004
					l128.24-74.04c3.129-1.806,6.161-4.485,7.575-8.601c0,0-0.549-0.272-0.549-0.272L331.307,353.556z"/>
			</g>
			<path style="fill:#455A64;" d="M309.368,49.382l-128.607,74.255c-3.507,2.02-6.153,6.852-5.888,10.738l20.212,296.362
				c0.407,5.974,5.153,8.321,10.531,5.211l125.187-72.272c3.965-2.292,6.967-7.764,6.666-12.176l-20.342-298.27
				C316.826,48.819,313.333,47.09,309.368,49.382z"/>
			<g>
				<path d="M330.473,344.564c0.287,4.202-2.558,9.408-6.329,11.576l-115.94,66.94c-3.78,2.198-7.08,0.563-7.368-3.649
					l-19.032-279.067c-0.232-3.406,1.58-7.47,4.311-10.04c0.215-0.196,0.42-0.392,0.635-0.578c0.444-0.353,0.912-0.675,1.383-0.947
					l32.611-18.83c0,0,0.953-0.555,2.126-1.225c1.173-0.68,2.197-0.177,2.287,1.132c0.089,1.3,1.178,1.782,2.434,1.049l38.005-21.94
					c1.246-0.722,2.201-2.367,2.112-3.667c-0.083-1.219,0.685-2.719,1.744-3.468c0.073-0.052,0.146-0.094,0.219-0.135l41.246-23.807
					L330.473,344.564z"/>
				<path style="fill:#FAFAFA;" d="M313.312,348.96c3.771-2.168,6.616-7.374,6.329-11.576L300.972,63.649l-31.301,18.065
					c-0.073,0.042-0.146,0.084-0.219,0.136c-1.059,0.749-1.827,2.249-1.744,3.468c0.089,1.3-0.866,2.945-2.112,3.667l-38.005,21.94
					c-1.256,0.733-2.345,0.251-2.434-1.049c-0.089-1.31-1.114-1.813-2.287-1.132c-1.173,0.671-2.126,1.225-2.126,1.225
					l-39.453,22.78l19.182,281.359L313.312,348.96z"/>
			</g>
			<g>
				<g>
					<path style="fill:#455A64;" d="M173.888,165.047c-0.149-2.192-1.885-4.77-3.877-5.758c-0.961-0.477-1.801-0.491-2.397-0.132
						c-0.421,0.253-2.077,1.176-2.515,1.439c-0.636,0.382-0.994,1.186-0.917,2.312l1.661,24.346
						c0.149,2.193,1.885,4.771,3.877,5.758c0.918,0.456,1.725,0.489,2.314,0.179c0.464-0.244,2.155-1.222,2.593-1.482
						c0.639-0.38,0.999-1.186,0.921-2.315L173.888,165.047z"/>
					<path style="fill:#37474F;" d="M171.395,166.485l1.661,24.346c0.15,2.192-1.344,3.169-3.335,2.181
						c-1.992-0.988-3.728-3.566-3.877-5.758l-1.66-24.346c-0.149-2.192,1.344-3.169,3.335-2.181
						C169.51,161.715,171.245,164.292,171.395,166.485z"/>
				</g>
				<g>
					<path style="fill:#455A64;" d="M176.794,207.658c-0.149-2.192-1.885-4.77-3.877-5.758c-0.961-0.477-1.801-0.491-2.397-0.132
						c-0.421,0.253-2.077,1.176-2.515,1.439c-0.636,0.382-0.994,1.186-0.917,2.313l1.661,24.346c0.15,2.193,1.885,4.771,3.877,5.758
						c0.918,0.455,1.725,0.489,2.314,0.178c0.464-0.244,2.155-1.221,2.593-1.482c0.639-0.38,0.999-1.186,0.921-2.315
						L176.794,207.658z"/>
					<path style="fill:#37474F;" d="M174.301,209.096l1.661,24.346c0.15,2.193-1.344,3.169-3.335,2.181
						c-1.992-0.988-3.728-3.566-3.877-5.758l-1.66-24.346c-0.15-2.192,1.344-3.169,3.335-2.181
						C172.416,204.326,174.151,206.903,174.301,209.096z"/>
				</g>
			</g>
		</g>
		<g id="Awning_1_">
			<polygon id="XMLID_00000134207727733255228410000016648108039569217979_" style="fill:#FFFFFF;" points="181.287,132.75 
				310.931,57.898 350.463,83.439 220.819,158.291 			"/>
			<g id="XMLID_867_">
				<polygon id="XMLID_875_" style="fill:#BA68C8;" points="181.288,132.75 220.819,158.291 235.225,149.974 195.693,124.433 				
					"/>
				<polygon id="XMLID_874_" style="fill:#BA68C8;" points="210.098,116.116 249.629,141.657 264.034,133.34 224.503,107.799 				
					"/>
				<polygon id="XMLID_873_" style="fill:#BA68C8;" points="238.907,99.482 278.439,125.023 292.843,116.706 253.312,91.165 				"/>
				<polygon id="XMLID_872_" style="fill:#BA68C8;" points="267.717,82.849 307.248,108.39 321.653,100.073 282.122,74.532 				"/>
				<polygon id="XMLID_871_" style="fill:#BA68C8;" points="296.526,66.215 336.058,91.756 350.463,83.439 310.931,57.898 				"/>
			</g>
			<g id="XMLID_837_">
				<g>
					<path id="XMLID_852_" style="fill:#BA68C8;" d="M220.819,158.291c0,4.593,3.225,6.455,7.203,4.159
						c3.978-2.297,7.203-7.882,7.203-12.475L220.819,158.291z"/>
					<path id="XMLID_850_" style="fill:#BA68C8;" d="M249.63,141.657c0,4.593,3.225,6.455,7.203,4.159
						c3.978-2.297,7.203-7.882,7.203-12.475L249.63,141.657z"/>
					<path id="XMLID_848_" style="fill:#BA68C8;" d="M278.441,125.023c0,4.593,3.225,6.455,7.203,4.159
						c3.978-2.297,7.203-7.882,7.203-12.475L278.441,125.023z"/>
					<path id="XMLID_846_" style="fill:#BA68C8;" d="M307.252,108.389c0,4.593,3.225,6.455,7.203,4.158
						c3.978-2.297,7.203-7.882,7.203-12.475L307.252,108.389z"/>
					<path id="XMLID_00000114771438199863582120000016813123422438780569_" style="fill:#BA68C8;" d="M336.063,91.755
						c0,4.593,3.225,6.455,7.203,4.159c3.978-2.297,7.203-7.882,7.203-12.475L336.063,91.755z"/>
				</g>
				<g style="opacity:0.3;">
					<path id="XMLID_325_" d="M220.819,158.291c0,4.593,3.225,6.455,7.203,4.159c3.978-2.297,7.203-7.882,7.203-12.475
						L220.819,158.291z"/>
					<path id="XMLID_281_" d="M249.63,141.657c0,4.593,3.225,6.455,7.203,4.159c3.978-2.297,7.203-7.882,7.203-12.475
						L249.63,141.657z"/>
					<path id="XMLID_00000076595100760494950640000001028700496517343148_" d="M278.441,125.023c0,4.593,3.225,6.455,7.203,4.159
						c3.978-2.297,7.203-7.882,7.203-12.475L278.441,125.023z"/>
					<path id="XMLID_268_" d="M307.252,108.389c0,4.593,3.225,6.455,7.203,4.158c3.978-2.297,7.203-7.882,7.203-12.475
						L307.252,108.389z"/>
					<path id="XMLID_00000027593575531403490140000005389603982103478948_" d="M336.063,91.755c0,4.593,3.225,6.455,7.203,4.159
						c3.978-2.297,7.203-7.882,7.203-12.475L336.063,91.755z"/>
				</g>
				<g>
					<path id="XMLID_851_" style="fill:#E0E0E0;" d="M235.223,149.974c0,4.593,3.225,6.455,7.203,4.158
						c3.978-2.297,7.203-7.882,7.203-12.475L235.223,149.974z"/>
					<path id="XMLID_849_" style="fill:#E0E0E0;" d="M264.034,133.34c0,4.593,3.225,6.455,7.203,4.158
						c3.978-2.297,7.203-7.882,7.202-12.475L264.034,133.34z"/>
					<path id="XMLID_847_" style="fill:#E0E0E0;" d="M292.845,116.706c0,4.593,3.225,6.455,7.203,4.158
						c3.978-2.297,7.203-7.882,7.203-12.475L292.845,116.706z"/>
					<path id="XMLID_845_" style="fill:#E0E0E0;" d="M321.656,100.072c0,4.593,3.225,6.455,7.203,4.158
						c3.978-2.297,7.203-7.882,7.203-12.475L321.656,100.072z"/>
				</g>
			</g>
		</g>
	</g>
</g>
<g id="Gift_00000088120400678321157840000017181040947376071310_">
	<g id="Gift_00000129188406525209400180000017004885842440675513_">
		<g id="Gift">
			<g id="Gift_37_">
				<g>
					<g id="XMLID_00000034770709490882414910000017098621962831898513_">
						<polygon id="XMLID_00000087372767833459068530000011886986747712358061_" style="fill:#BA68C8;" points="310.141,328.658 
							383.393,286.319 383.393,234.27 384.938,233.379 384.938,211.785 310.142,254.97 						"/>
					</g>
					<g id="XMLID_00000130612068667616394790000010452513425390395805_" style="opacity:0.45;">
						<polygon id="XMLID_00000017485952911250477190000008315561623929905587_" style="fill:#FFFFFF;" points="310.141,328.658 
							383.393,286.319 383.393,234.27 384.938,233.379 384.938,211.785 310.142,254.97 						"/>
					</g>
					<polygon id="XMLID_00000096018011915136013200000017205800598390695084_" style="opacity:0.15;" points="310.144,276.564 
						338.185,260.373 383.393,234.27 383.393,237.375 310.144,279.661 					"/>
					<polygon id="XMLID_671_" style="fill:#BA68C8;" points="310.142,328.658 237.291,286.629 237.291,234.497 235.345,233.379 
						235.345,211.785 310.142,254.97 					"/>
					<polygon id="XMLID_670_" style="opacity:0.3;fill:#FFFFFF;" points="310.142,328.658 237.291,286.629 237.291,234.497 
						235.345,233.379 235.345,211.785 310.142,254.97 					"/>
					<polygon id="XMLID_667_" style="opacity:0.1;" points="237.282,234.497 310.144,276.564 310.144,279.661 237.282,237.637 					
						"/>
					<g id="XMLID_595_">
						<polygon id="XMLID_646_" style="fill:#BA68C8;" points="235.345,211.785 310.141,168.603 384.938,211.785 310.142,254.97 
													"/>
					</g>
					<g id="XMLID_589_" style="opacity:0.6;">
						<polygon id="XMLID_594_" style="fill:#FFFFFF;" points="235.345,211.785 310.141,168.603 384.938,211.785 310.142,254.97 
													"/>
					</g>
				</g>
				<g>
					<polygon style="fill:#EBEBEB;" points="279.765,311.133 279.765,237.432 267.614,230.417 267.614,304.123 					"/>
					<polygon style="fill:#BA68C8;" points="279.765,311.133 279.765,237.432 267.614,230.417 267.614,304.123 					"/>
					<polygon style="opacity:0.4;" points="279.765,311.133 279.765,237.432 267.614,230.417 267.614,304.123 					"/>
					<polygon style="fill:#BA68C8;" points="340.518,311.133 340.518,237.432 352.669,230.417 352.669,304.123 					"/>
					<polygon style="opacity:0.15;" points="340.518,311.133 340.518,237.432 352.669,230.417 352.669,304.123 					"/>
					<g>
						<polygon style="fill:#BA68C8;" points="267.614,230.417 342.411,187.233 354.562,194.249 279.765,237.432 						"/>
						<polygon style="opacity:0.25;" points="309.146,220.469 296.996,213.453 309.146,206.438 321.297,213.453 						"/>
						<polygon style="fill:#BA68C8;" points="340.518,237.432 265.722,194.248 277.873,187.232 352.669,230.417 						"/>
					</g>
				</g>
			</g>
			<g>
				<polygon style="fill:#BA68C8;" points="307.218,218.444 324.415,246.744 324.415,296.047 335.058,281.006 335.058,240.639 
					309.708,213.232 				"/>
				<polygon style="fill:#BA68C8;" points="310.169,215.475 359.72,217.001 368.269,205.478 310.057,210.721 				"/>
				<g>
					<g>
						<path style="fill:#BA68C8;" d="M262.121,193.122c0,0,3.029,11.962,16.925,16.63c13.897,4.668,30.073,5.73,30.073,5.73
							l-31.649-37.767L262.121,193.122z"/>
						<path style="opacity:0.4;" d="M262.121,193.122c0,0,3.029,11.962,16.925,16.63c13.897,4.668,30.073,5.73,30.073,5.73
							l-31.649-37.767L262.121,193.122z"/>
						<path style="fill:#BA68C8;" d="M309.119,215.482c0,0,0.342-11.829-5.766-20.769c-6.108-8.94-25.882-16.998-25.882-16.998
							c-5.999,4.574-10.982,9.795-15.349,15.407c0,0,26.277-0.21,44.342,21.947L309.119,215.482z"/>
						<path style="opacity:0.1;fill:#FFFFFF;" d="M309.119,215.482c0,0,0.342-11.829-5.766-20.769
							c-6.108-8.94-25.882-16.998-25.882-16.998c-5.999,4.574-10.982,9.795-15.349,15.407c0,0,26.277-0.21,44.342,21.947
							L309.119,215.482z"/>
						<path style="opacity:0.3;fill:#FFFFFF;" d="M278.615,196.158c4.33,1.416,9.121,3.498,13.936,6.563l9.63-9.513
							c-3.206-3.746-8.521-7.25-13.414-9.982L278.615,196.158z"/>
					</g>
					<g>
						<path style="fill:#BA68C8;" d="M309.119,215.482c0,0-3.5,7.538-13.005,12.15c-9.505,4.613-25.404,4.37-25.404,4.37
							l-1.517-20.031c0,0,5.047,8.784,16.743,8.97c11.793,0.187,19.457-7.169,19.457-7.169L309.119,215.482z"/>
						<path style="opacity:0.4;" d="M309.119,215.482c0,0-3.5,7.538-13.005,12.15c-9.505,4.613-25.404,4.37-25.404,4.37
							l-1.517-20.031c0,0,5.047,8.784,16.743,8.97c11.793,0.187,19.457-7.169,19.457-7.169L309.119,215.482z"/>
						<path style="fill:#BA68C8;" d="M309.119,215.482c-9.947-10.144-19.257-11.125-27.75-9.14
							c-9.395,2.196-12.175,5.63-12.175,5.63l1.517,20.031c0,0,5.036-9.785,18.576-14.178
							C302.826,213.431,309.119,215.482,309.119,215.482z"/>
						<path style="opacity:0.1;fill:#FFFFFF;" d="M309.119,215.482c-9.947-10.144-19.257-11.125-27.75-9.14
							c-9.395,2.196-12.175,5.63-12.175,5.63l1.517,20.031c0,0,5.036-9.785,18.576-14.178
							C302.826,213.431,309.119,215.482,309.119,215.482z"/>
						<path style="opacity:0.3;fill:#FFFFFF;" d="M273.853,208.881c2.311,3.321,5.986,8.746,8.304,12.181
							c2.075-1.207,4.385-2.347,7.13-3.238c2.708-0.879,5.047-1.446,7.183-1.877l-8.644-10.437c-2.2,0.034-4.355,0.34-6.458,0.831
							C278.104,207.105,275.681,208.015,273.853,208.881z"/>
					</g>
					<g>
						<path style="fill:#BA68C8;" d="M308.564,213.251c0,0,13.973-2,23.664-12.377c9.692-10.376,11.759-24.868,11.759-24.868
							l-17.621-11.039c0,0,5.215,12.975-3.143,27.217c-6.276,10.696-14.972,12.89-14.972,12.89L308.564,213.251z"/>
						<path style="opacity:0.4;" d="M308.564,213.251c0,0,13.973-2,23.664-12.377c9.692-10.376,11.759-24.868,11.759-24.868
							l-17.621-11.039c0,0,5.215,12.975-3.143,27.217c-6.276,10.696-14.972,12.89-14.972,12.89L308.564,213.251z"/>
						<path style="fill:#BA68C8;" d="M308.564,213.251l2.58-0.536c0,0,1.449-15.123,13.798-26.435
							c12.838-11.76,19.046-10.274,19.046-10.274c-5.158-5.177-11.26-8.378-17.621-11.039c0,0-10.915,6.378-15.742,15.417
							C304.838,191.218,306.735,207.237,308.564,213.251z"/>
						<path style="opacity:0.1;fill:#FFFFFF;" d="M308.564,213.251l2.58-0.536c0,0,1.449-15.123,13.798-26.435
							c12.838-11.76,19.046-10.274,19.046-10.274c-5.158-5.177-11.26-8.378-17.621-11.039c0,0-10.915,6.378-15.742,15.417
							C304.838,191.218,306.735,207.237,308.564,213.251z"/>
						<g style="opacity:0.3;">
							<path style="fill:#FFFFFF;" d="M334.559,178.978l-14.874-9.152c-0.705,0.593-1.416,1.209-2.144,1.893l14.516,8.849
								C332.941,179.965,333.776,179.436,334.559,178.978z"/>
							<path style="fill:#FFFFFF;" d="M329.849,182.163l-14.378-8.356c-1.339,1.434-2.618,3-3.714,4.679
								c-0.032,0.05-0.069,0.098-0.101,0.147c-0.367,0.571-0.714,1.154-1.032,1.751c-0.187,0.35-0.301,0.746-0.472,1.107
								l12.036,7.572c0.854-0.945,1.765-1.877,2.754-2.782C326.706,184.663,328.334,183.317,329.849,182.163z"/>
						</g>
					</g>
					<g>
						<path style="fill:#BA68C8;" d="M309.041,215.457c0,0,4.523,4.517,15.131,6.813c10.609,2.296,23.868,0.291,29.398-6.206
							l-1.76-18.583c0,0-8.48,12.204-21.294,14.639c-9.759,1.855-21.608-1.663-21.608-1.663L309.041,215.457z"/>
						<path style="opacity:0.4;" d="M309.041,215.457c0,0,4.523,4.517,15.131,6.813c10.609,2.296,23.868,0.291,29.398-6.206
							l-1.76-18.583c0,0-8.48,12.204-21.294,14.639c-9.759,1.855-21.608-1.663-21.608-1.663L309.041,215.457z"/>
						<path style="fill:#BA68C8;" d="M308.245,211.202c0,0,9.879-10.982,20.82-12.999c14.829-2.733,22.744-0.722,22.744-0.722
							c2.844,6.632,3.343,12.81,1.76,18.583c0,0-6.652-6.721-21.755-6.801c-11.939-0.063-22.774,6.194-22.774,6.194L308.245,211.202
							z"/>
						<path style="opacity:0.1;fill:#FFFFFF;" d="M308.245,211.202c0,0,9.879-10.982,20.82-12.999
							c14.829-2.733,22.744-0.722,22.744-0.722c2.844,6.632,3.343,12.81,1.76,18.583c0,0-6.652-6.721-21.755-6.801
							c-11.939-0.063-22.774,6.194-22.774,6.194L308.245,211.202z"/>
						<path style="opacity:0.3;fill:#FFFFFF;" d="M350.354,213.786c-2.265-1.29-5.748-2.834-10.573-3.737l-2.345-12.965
							c4.949-0.435,8.679-0.304,11.105-0.089C350.333,202.208,350.883,209.446,350.354,213.786z"/>
					</g>
				</g>
				<polygon style="opacity:0.15;" points="335.058,240.639 324.415,246.744 324.415,296.047 335.058,281.006 				"/>
			</g>
		</g>
		<g id="Hand">
			<g>
				<path style="fill:#FFA8A7;" d="M297.717,286.926c-0.867,1.959-5.526,1.043-7.193,1.033c-0.448,0-0.906,0-1.325,0.136
					c-0.526,0.175-0.955,0.536-1.413,0.858c-2.105,1.443-4.815,1.745-7.358,1.501c-2.719-0.253-6.315-2.144-8.781-0.663
					c-2.554,1.54-5.838,0.809-8.684-0.107c-4.941-1.589-9.756-3.587-14.385-5.945c-2.953-1.52-5.75-3.236-8.518-5.029
					c-0.234-0.156-0.478-0.312-0.712-0.468c-2.963-1.939-6.15-3.528-9.093-5.546c-5.965-4.093-11.617-8.635-17.826-12.368
					c-1.91-1.15-4.142-2.407-6.608-3.752c-0.01,0-0.01,0-0.02-0.01c-0.283-0.156-0.575-0.312-0.867-0.468
					c-0.029-0.01-0.059-0.039-0.088-0.059c-1.842-1.306-2.992-3.967-2.992-7.651c0-7.193,4.366-15.545,9.766-18.664
					c2.534-1.462,4.844-1.511,6.579-0.39c0.273,0.214,0.546,0.429,0.809,0.634c4.298,3.343,7.972,6.023,10.243,7.28
					c9.483,5.273,13.411,5.195,19.395,4.893c3.83-0.195,7.602,0.244,11.422,0.331c4.844,0.107,9.727,0.224,14.59,0.273
					c0.419,0.01,0.867,0.029,1.15,0.331c0.175,0.175,0.244,0.429,0.302,0.673c0.497,2.017,0.068,3.128-1.549,4.444
					c-2.495,2.018-6.023,3.012-9.152,3.489c-1.413,0.224-5.633,0.322-6.267,1.959c-0.448,1.179,1.784,2.768,2.67,3.304
					c4.932,3.021,10.799,4.844,16.149,7.027c2.924,1.199,5.838,2.427,8.693,3.772c3.694,1.745,9.356,3.616,9.912,8.333
					c0.029,0.205,0.039,0.429-0.059,0.604c-0.117,0.224-0.38,0.341-0.614,0.419c-1.218,0.38-2.534,0.273-3.791,0.107
					c-1.793-0.234-3.567-0.585-5.331-0.936c-1.745-0.331-3.08-0.711-5.127-1.257c-1.442-0.38-3.411-1.072-5.146-1.384
					c0,0,11.325,5.087,16.383,7.202c1.491,0.614,3.031,1.296,4.054,2.544C297.669,284.266,298.215,285.796,297.717,286.926z"/>
				<path style="fill:#F28F8F;" d="M276.504,273.631c-5.545-1.913-13.148-4.528-15.061-5.65
					C264.831,270.522,271.217,272.615,276.504,273.631z"/>
				<path style="fill:#F28F8F;" d="M288.011,287.096c-4.682-1.406-9.324-3.043-13.88-4.815c-2.306-0.897-4.592-1.845-6.876-2.795
					c-2.253-0.937-4.438-2.017-6.662-3.02c-0.046-0.021-0.072,0.08-0.035,0.1c4.303,2.414,8.883,4.459,13.48,6.243
					c4.568,1.773,9.206,3.219,13.943,4.462C288.049,287.29,288.074,287.115,288.011,287.096z"/>
				<path style="fill:#F28F8F;" d="M274.027,288.654c-3.648-1.25-7.271-2.733-10.831-4.353c-1.802-0.82-3.589-1.692-5.376-2.566
					c-1.762-0.862-3.476-1.869-5.217-2.798c-0.036-0.019-0.054,0.082-0.024,0.102c3.381,2.271,6.967,4.163,10.559,5.794
					c3.57,1.621,7.184,2.912,10.871,3.998C274.062,288.847,274.076,288.671,274.027,288.654z"/>
			</g>
			<g>
				<path style="fill:#E0E0E0;" d="M205.524,230.431c-1.15,1.308-2.27,2.666-3.16,4.166c-0.909,1.532-1.653,3.145-2.23,4.831
					c-0.549,1.599-0.95,3.248-1.203,4.92c-0.286,1.891-0.216,3.697-0.064,5.596c0.005,0.066,0.063,0.032,0.062-0.019
					c-0.037-1.622,0.186-3.286,0.399-4.894c0.23-1.734,0.632-3.445,1.187-5.104c1.11-3.316,2.81-6.655,5.073-9.332
					C205.634,230.54,205.589,230.357,205.524,230.431z"/>
				<path style="fill:#E0E0E0;" d="M205.441,259.11c-1.183,0.055-2.27,0.08-3.397-0.36c-1.1-0.43-2.078-1.151-2.849-2.043
					c-0.84-0.972-1.421-2.162-1.819-3.376c-0.23-0.705-0.396-1.427-0.525-2.157c-0.138-0.774-0.197-1.599-0.419-2.354
					c-0.016-0.055-0.058-0.018-0.064,0.02c-0.235,1.344,0.143,2.917,0.51,4.214c0.389,1.377,0.999,2.713,1.911,3.824
					c0.82,1,1.886,1.816,3.082,2.314c1.106,0.46,2.544,0.766,3.676,0.238C205.679,259.369,205.569,259.104,205.441,259.11z"/>
				<path style="fill:#E0E0E0;" d="M220.396,228.567c-1.186-2.821-4.135-4.473-7.139-4.533c-3.714-0.074-7.292,1.955-9.809,4.521
					c-1.599,1.631-2.767,3.294-3.863,5.421c-0.032,0.062,0.035,0.265,0.096,0.168c3.006-4.773,5.47-7.285,9.842-8.91
					c3.733-1.387,8.817-0.443,10.691,3.451C220.303,228.87,220.462,228.724,220.396,228.567z"/>
			</g>
		</g>
	</g>
</g>
<g id="Speech_Bubble">
	<g id="Speech_Bubble_1_">
		<g id="Speech_Bubble_6_">
			<path style="fill:#FAFAFA;" d="M183.854,82.582c-5.732,5.019-12.907,7.347-19.983,7.115l-3.293-0.299
				c-6.544-0.969-12.796-4.166-17.488-9.525c-10.492-11.983-9.279-30.268,2.704-40.76c5.359-4.692,11.978-7.035,18.593-7.131
				l3.303,0.139c7.045,0.705,13.849,3.96,18.868,9.692C197.055,53.801,195.842,72.086,183.854,82.582z"/>
			<path style="fill:#E0E0E0;" d="M188.401,40.201c-11.383-13-31.222-14.317-44.222-2.934
				c-11.664,10.212-13.911,27.226-6.031,40.005l-4.512,8.625c-0.771,1.473,0.674,3.123,2.236,2.554l9.147-3.333
				c11.627,9.497,28.786,9.516,40.449-0.695C198.467,73.041,199.784,53.202,188.401,40.201z M183.854,82.582
				c-5.732,5.019-12.907,7.347-19.983,7.115l-3.293-0.299c-6.544-0.969-12.796-4.166-17.488-9.525
				c-10.492-11.983-9.279-30.268,2.704-40.76c5.359-4.692,11.978-7.035,18.593-7.131l3.303,0.139
				c7.045,0.705,13.849,3.96,18.868,9.692C197.055,53.801,195.842,72.086,183.854,82.582z"/>
		</g>
		<g>
			<path id="Heart_00000174584480676256378390000000388810539338615987_" style="fill:#BA68C8;" d="M164.826,76.175
				c-20.384-10.859-22.028-22.51-16.102-28.207c5.31-5.104,15.022-1.738,16.102,5.556c1.08-7.294,10.792-10.66,16.102-5.556
				C186.854,53.665,185.21,65.316,164.826,76.175z"/>
		</g>
	</g>
</g>
<g id="Button_00000005950466262233547020000018228728228458080697_">
	<g id="Button">
		<path id="XMLID_00000034782941518612016550000005577374992858274476_" style="fill:#BA68C8;" d="M387.87,401.338
			c0,2.325-1.74,5.214-3.887,6.454l-116.187,67.08c-2.147,1.239-5.627,1.239-7.773,0l-28.686-16.562
			c-2.146-1.239-3.887-4.129-3.887-6.454c0-2.325,1.74-5.214,3.886-6.454l116.187-67.08c2.146-1.24,5.627-1.239,7.773,0
			l28.686,16.561C386.13,396.123,387.87,399.013,387.87,401.338z"/>
		<path id="XMLID_00000019665871892898935740000014106252878562516413_" style="opacity:0.2;" d="M387.87,401.338
			c0,2.325-1.74,5.214-3.887,6.454l-116.187,67.08c-2.147,1.239-5.627,1.239-7.773,0l-28.686-16.562
			c-2.146-1.239-3.887-4.129-3.887-6.454c0-2.325,1.74-5.214,3.886-6.454l116.187-67.08c2.146-1.24,5.627-1.239,7.773,0
			l28.686,16.561C386.13,396.123,387.87,399.013,387.87,401.338z"/>
		<path id="XMLID_00000075874211163696574370000006626483825188625045_" style="fill:#BA68C8;" d="M384.566,395.279
			c1.545,1.25,1.344,2.976-0.585,4.089l-48.431,27.966l-67.75,39.116c-1.07,0.615-2.483,0.926-3.892,0.934l0.004,8.418
			c1.404,0.002,2.816-0.309,3.886-0.924l116.186-67.093c2.147-1.239,3.888-4.117,3.884-6.452
			C387.867,399.226,386.438,396.651,384.566,395.279z"/>
		<g id="XMLID_00000083785707531434462090000015937656701078609288_">
			<path style="fill:#FAFAFA;" d="M260.024,466.453l-28.686-16.562c-2.147-1.239-2.146-3.249,0-4.488l116.187-67.081
				c2.146-1.24,5.627-1.239,7.773,0l28.686,16.562c2.146,1.239,2.146,3.248,0,4.488l-48.432,27.962l-67.754,39.118
				C265.65,467.692,262.17,467.692,260.024,466.453z"/>
			<path style="fill:#BA68C8;" d="M351.412,378.797L351.412,378.797c1.207,0,2.368,0.27,3.184,0.741l28.686,16.562
				c0.56,0.323,0.908,0.717,0.908,1.028c0,0.311-0.348,0.705-0.908,1.028l-48.432,27.962l-67.754,39.118
				c-0.816,0.471-1.977,0.741-3.185,0.741s-2.368-0.27-3.184-0.741l-28.686-16.562c-0.56-0.323-0.908-0.717-0.908-1.028
				s0.348-0.705,0.908-1.028l116.187-67.081C349.042,379.067,350.203,378.797,351.412,378.797 M351.411,377.393
				c-1.406,0-2.813,0.31-3.887,0.93l-116.187,67.081c-2.146,1.239-2.147,3.249,0,4.488l28.686,16.562
				c1.073,0.62,2.48,0.929,3.886,0.929c1.407,0,2.813-0.31,3.887-0.929l67.754-39.118l48.432-27.962
				c2.146-1.239,2.147-3.249,0-4.488l-28.686-16.562C354.224,377.703,352.818,377.393,351.411,377.393L351.411,377.393z"/>
		</g>
		
			<text transform="matrix(0.75 -0.433 0.866 0.5 260.3001 460.6081)" style="fill:#BA68C8; font-family:'Rubik-Medium'; font-size:29.5319px;">GIVEAWAY</text>
	</g>
</g>
<g id="Megaphone">
	<g id="Megaphone_00000167362689299967386620000006478788609557456280_">
		<g>
			<path style="fill:#455A64;" d="M461.67,328.191c0.065,7.265-5.771,13.208-13.036,13.273c-7.265,0.065-13.208-5.772-13.273-13.036
				c-0.065-7.265,5.771-13.208,13.036-13.273C455.662,315.089,461.605,320.926,461.67,328.191z"/>
			<path style="fill:#37474F;" d="M455.111,329.913c-2.379,1.402-8.551,5.04-14.767,8.704c2.275,1.806,5.158,2.876,8.29,2.848
				c7.265-0.065,13.102-6.008,13.036-13.273c-0.024-2.725-0.876-5.249-2.313-7.336C460.561,324.2,459.858,327.114,455.111,329.913z"
				/>
		</g>
		<g id="XMLID_913_">
			<path id="XMLID_6588_" style="fill:#37474F;" d="M446.012,337.413l-9.212-5.215c2.91,10.554,4.628,26.415,4.008,38.064
				l3.686,2.084C446.576,365.324,446.929,351.028,446.012,337.413z"/>
			<path id="XMLID_00000054261602768451448540000018259199660548507836_" style="fill:#455A64;" d="M457.154,337.224l-3.82,4.956
				l0.033,14.401c0.014,6.449-3.354,12.433-8.874,15.766l0,0c2.117-8.359,2.241-22.536,1.519-34.933L457.154,337.224z"/>
			<g>
				<path style="fill:#BA68C8;" d="M445.107,353.74c0.092,0.052,0.183,0.104,0.271,0.153c0.434,0.246,1.134,0.239,1.564-0.014
					l2.088-1.231c0.43-0.253,0.781-0.055,0.786,0.444l0.003,0.307c0.005,0.498-0.34,1.108-0.769,1.362l-2.121,1.253
					c-0.429,0.253-1.126,0.255-1.556,0.002l-0.253-0.148c-0.431-0.252-0.783-0.861-0.787-1.359l-0.003-0.311
					C444.325,353.7,444.673,353.495,445.107,353.74z"/>
				<path style="fill:#BA68C8;" d="M444.822,358.46c0.092,0.052,0.183,0.104,0.271,0.153c0.434,0.245,1.134,0.239,1.564-0.014
					l2.088-1.231c0.43-0.253,0.781-0.054,0.786,0.444l0.003,0.307c0.005,0.499-0.34,1.108-0.769,1.362l-2.121,1.253
					c-0.429,0.254-1.126,0.255-1.556,0.003l-0.253-0.148c-0.43-0.252-0.782-0.861-0.787-1.359l-0.003-0.312
					C444.039,358.419,444.387,358.214,444.822,358.46z"/>
				<path style="fill:#BA68C8;" d="M444.535,363.18c0.092,0.052,0.184,0.104,0.272,0.154c0.434,0.245,1.134,0.239,1.563-0.014
					l2.088-1.23c0.429-0.253,0.781-0.054,0.786,0.444l0.003,0.307c0.004,0.498-0.34,1.108-0.769,1.362l-2.121,1.253
					c-0.429,0.254-1.126,0.255-1.556,0.003l-0.253-0.148c-0.43-0.252-0.782-0.86-0.787-1.359l-0.003-0.312
					C443.753,363.139,444.101,362.934,444.535,363.18z"/>
			</g>
		</g>
		<g id="XMLID_869_">
			<g>
				<path id="XMLID_912_" style="fill:#BA68C8;" d="M431.301,320.55l0.004,0.005c1.751-1.027,4.12-1.008,6.763,0.255
					c0.277,0.128,0.558,0.274,0.843,0.434c0.336,0.191,0.663,0.392,0.99,0.614c0.54,0.361,1.067,0.758,1.581,1.195
					c0.941,0.791,1.834,1.694,2.664,2.684c2.226,2.661,3.989,5.922,4.934,9.185c0.475,1.648,0.743,3.292,0.757,4.867
					c0.03,3.344-1.095,5.733-2.948,6.905l6.591-3.878l-0.009-0.014c2.302-1.492,3.872-4.133,3.842-7.423
					c-0.014-1.503-0.258-3.076-0.696-4.647c-0.928-3.336-2.719-6.682-4.995-9.401c-0.831-0.99-1.723-1.898-2.665-2.684
					c-0.514-0.438-1.041-0.839-1.581-1.196c-0.327-0.223-0.658-0.427-0.99-0.614c-0.281-0.16-0.567-0.302-0.852-0.43
					c-2.61-1.159-5.321-0.968-7.504,0.194l-0.004-0.005l-0.184,0.106c-0.076,0.046-0.157,0.091-0.233,0.142L431.301,320.55z"/>
				<path id="XMLID_00000118398781855315804420000012744713827764416139_" style="opacity:0.1;" d="M453.48,342.817l-0.009-0.014
					c2.302-1.492,3.872-4.133,3.842-7.423c-0.014-1.503-0.258-3.076-0.696-4.647l-7.536,4.188c0.475,1.648,0.743,3.292,0.757,4.867
					c0.03,3.344-1.095,5.733-2.948,6.905L453.48,342.817z"/>
			</g>
			<g>
				<path id="XMLID_00000052804585014783457960000005569887575240897201_" style="fill:#BA68C8;" d="M428.204,327.555
					c0.062,6.864,4.952,15.165,10.926,18.541c3.003,1.701,5.712,1.83,7.651,0.662c0.036-0.018,0.072-0.041,0.108-0.064
					c1.853-1.172,2.978-3.561,2.948-6.905c-0.061-6.864-4.952-15.165-10.926-18.546c-2.98-1.684-5.671-1.827-7.606-0.689
					C429.361,321.691,428.174,324.116,428.204,327.555z"/>
				<path id="XMLID_00000068650872303284180500000017962856307255741102_" style="opacity:0.2;" d="M428.204,327.555
					c0.062,6.864,4.952,15.165,10.926,18.541c3.003,1.701,5.712,1.83,7.651,0.662c0.036-0.018,0.072-0.041,0.108-0.064
					c1.853-1.172,2.978-3.561,2.948-6.905c-0.061-6.864-4.952-15.165-10.926-18.546c-2.98-1.684-5.671-1.827-7.606-0.689
					C429.361,321.691,428.174,324.116,428.204,327.555z"/>
			</g>
			<g>
				<path id="XMLID_887_" style="fill:#BA68C8;" d="M395.194,326.076c0,0,10.906,5.474,20.322,21.45
					c1.85,3.138,3.317,6.134,4.48,8.916c4.759,11.381,4.443,19.253,4.443,19.253c3.165-7.953,7.113-16.195,13.769-22.538
					c4.119-3.926,8.189-6.975,8.189-6.975l-0.005-0.008c1.767-1.047,2.783-3.296,2.756-6.381c-0.019-2.032-0.476-4.193-1.273-6.311
					c-0.497-1.341-1.131-2.665-1.873-3.925c-1.916-3.251-4.547-6.079-7.431-7.711c-2.686-1.518-5.146-1.718-6.918-0.68l-0.004-0.008
					c0,0-4.639,2.084-10.069,3.786C412.808,327.696,403.685,327.159,395.194,326.076z"/>
				<path id="XMLID_886_" style="opacity:0.6;fill:#FFFFFF;" d="M395.194,326.076c0,0,10.906,5.474,20.322,21.45
					c1.85,3.138,3.317,6.134,4.48,8.916c4.759,11.381,4.443,19.253,4.443,19.253c3.165-7.953,7.113-16.195,13.769-22.538
					c4.119-3.926,8.189-6.975,8.189-6.975l-0.005-0.008c1.767-1.047,2.783-3.296,2.756-6.381c-0.019-2.032-0.476-4.193-1.273-6.311
					c-0.497-1.341-1.131-2.665-1.873-3.925c-1.916-3.251-4.547-6.079-7.431-7.711c-2.686-1.518-5.146-1.718-6.918-0.68l-0.004-0.008
					c0,0-4.639,2.084-10.069,3.786C412.808,327.696,403.685,327.159,395.194,326.076z"/>
				<path id="XMLID_885_" style="opacity:0.1;" d="M419.996,356.442c4.759,11.381,4.443,19.253,4.443,19.253
					c3.165-7.953,7.113-16.195,13.769-22.538c4.119-3.926,8.189-6.975,8.189-6.975l-0.005-0.008
					c1.767-1.047,2.783-3.296,2.756-6.381c-0.019-2.032-0.476-4.193-1.273-6.311C439.686,337.676,426.443,345.392,419.996,356.442z"
					/>
			</g>
			<g>
				<path id="XMLID_884_" style="fill:#BA68C8;" d="M374.882,341.75c0.065,7.158,2.337,14.972,6.071,22.173v0.004
					c4.786,9.223,11.954,17.431,19.938,21.945c14.217,8.036,25.62,1.313,25.473-15.014c-0.034-3.737-0.669-7.648-1.797-11.56
					c-2.785-9.634-8.568-19.253-15.751-26.157c-1.01-0.975-2.048-1.891-3.112-2.748c-0.441-0.357-0.891-0.705-1.341-1.039l-0.004,0
					c-0.641-0.477-1.286-0.931-1.939-1.359c-0.681-0.445-1.367-0.868-2.061-1.259C386.143,318.699,374.735,325.418,374.882,341.75z"
					/>
				<path id="XMLID_881_" style="opacity:0.1;" d="M380.953,363.928c4.786,9.223,11.954,17.431,19.938,21.945
					c14.217,8.036,25.62,1.313,25.473-15.014c-0.034-3.737-0.669-7.648-1.797-11.56l-0.004,0c-0.938,2.121-4.349,5.166-5.907,3.068
					c0.993,3.502,1.547,6.972,1.577,10.253c0.042,4.694-0.971,8.489-2.926,10.985c-1.669,2.127-3.978,3.222-6.862,3.243
					c-2.802,0.03-6.07-0.974-9.449-2.88c-6.791-3.838-13.064-10.791-17.54-18.69C383.456,365.277,382.583,366.03,380.953,363.928z"
					/>
			</g>
			<g>
				<path id="XMLID_00000041282555392782725590000003372966241387617672_" style="fill:#BA68C8;" d="M376.641,342.646
					c0.065,7.212,2.669,15.33,6.815,22.631c4.476,7.899,10.749,14.851,17.54,18.69c3.379,1.906,6.647,2.91,9.449,2.88
					c2.884-0.021,5.194-1.116,6.862-3.243c1.955-2.495,2.968-6.291,2.926-10.985c-0.03-3.281-0.584-6.751-1.577-10.253
					c-0.373-1.324-0.809-2.651-1.304-3.974c-0.86-2.303-1.896-4.605-3.081-6.828c-0.243-0.458-0.491-0.912-0.743-1.361
					c-0.417-0.75-0.853-1.495-1.307-2.222c-1.539-2.5-3.262-4.877-5.114-7.058c-0.018-0.022-0.046-0.049-0.064-0.076
					c-1.236-1.451-2.525-2.812-3.859-4.068c-0.961-0.903-1.943-1.747-2.943-2.533c-0.418-0.33-0.841-0.647-1.268-0.954
					c-0.513-0.366-1.031-0.717-1.553-1.056c-0.508-0.325-1.021-0.632-1.534-0.925c-3.388-1.919-6.656-2.91-9.459-2.889
					C380.219,328.479,376.561,333.801,376.641,342.646z"/>
				<path id="XMLID_877_" style="opacity:0.4;" d="M376.641,342.646c0.065,7.212,2.669,15.33,6.815,22.631
					c4.476,7.899,10.749,14.851,17.54,18.69c3.379,1.906,6.647,2.91,9.449,2.88c2.884-0.021,5.194-1.116,6.862-3.243
					c1.955-2.495,2.968-6.291,2.926-10.985c-0.03-3.281-0.584-6.751-1.577-10.253c-0.373-1.324-0.809-2.651-1.304-3.974
					c-0.86-2.303-1.896-4.605-3.081-6.828c-0.243-0.458-0.491-0.912-0.743-1.361c-0.417-0.75-0.853-1.495-1.307-2.222
					c-1.539-2.5-3.262-4.877-5.114-7.058c-0.018-0.022-0.046-0.049-0.064-0.076c-1.236-1.451-2.525-2.812-3.859-4.068
					c-0.961-0.903-1.943-1.747-2.943-2.533c-0.418-0.33-0.841-0.647-1.268-0.954c-0.513-0.366-1.031-0.717-1.553-1.056
					c-0.508-0.325-1.021-0.632-1.534-0.925c-3.388-1.919-6.656-2.91-9.459-2.889C380.219,328.479,376.561,333.801,376.641,342.646z"
					/>
			</g>
		</g>
		<g>
			<g id="XMLID_00000113320510357155738450000001461870102893923263_">
				<path id="XMLID_00000143594074885671513060000010165201038812332990_" style="fill:#37474F;" d="M395.218,348.697l8.869,15.37
					c3.649-1.974,8.09-4.431,13.736-4.354c-0.148-0.441-0.306-0.877-0.472-1.318c-0.86-2.303-1.896-4.605-3.081-6.828
					c-0.243-0.458-0.491-0.912-0.743-1.361c-0.418-0.75-0.853-1.495-1.306-2.222c-1.539-2.5-3.262-4.877-5.114-7.058
					c-0.018-0.023-0.046-0.049-0.064-0.076c-0.273-0.318-0.547-0.636-0.826-0.945C403.457,344.931,395.218,348.697,395.218,348.697z
					"/>
			</g>
			<g id="XMLID_00000112596797688944469570000006539306747739097764_">
				<path id="XMLID_00000040570552250803205030000015248804975712277423_" style="fill:#BA68C8;" d="M402.879,364.325
					c1.905-0.017,3.029-1.566,3.005-4.144l0-0.079c-0.037-4.052-2.936-8.97-6.463-10.964l-0.069-0.039
					c-0.94-0.532-1.862-0.809-2.666-0.802c-1.905,0.017-3.028,1.567-3.005,4.144l0.001,0.079c0.036,4.052,2.936,8.97,6.463,10.965
					l0.068,0.039C401.154,364.055,402.076,364.332,402.879,364.325L402.879,364.325z"/>
			</g>
		</g>
	</g>
</g>
</svg>
